<?xml version="1.0" encoding="UTF-8" standalone="no" ?>
<!DOCTYPE svg PUBLIC "-//W3C//DTD SVG 1.1//EN" "http://www.w3.org/Graphics/SVG/1.1/DTD/svg11.dtd">
<svg xmlns="http://www.w3.org/2000/svg" xmlns:xlink="http://www.w3.org/1999/xlink" version="1.1" width="1080" height="1080" viewBox="0 0 1080 1080" xml:space="preserve">
<desc>Created with Fabric.js 5.2.4</desc>
<defs>
</defs>
<g transform="matrix(1 0 0 1 540 540)" id="626aa619-712c-45b8-a16f-c37c4230dbd5"  >
<rect style="stroke: none; stroke-width: 1; stroke-dasharray: none; stroke-linecap: butt; stroke-dashoffset: 0; stroke-linejoin: miter; stroke-miterlimit: 4; fill: rgb(255,255,255); fill-rule: nonzero; opacity: 1; visibility: hidden;" vector-effect="non-scaling-stroke"  x="-540" y="-540" rx="0" ry="0" width="1080" height="1080" />
</g>
<g transform="matrix(1 0 0 1 540 540)" id="e8b178f7-010a-42b2-a5c3-fc4af54874de"  >
</g>
<g transform="matrix(1 0 0 1 445.44 540)"  >
<g style="opacity: 1;" vector-effect="non-scaling-stroke"   >
		<g transform="matrix(1 0 0 1 -3818.45 657.22)"  >
<path style="stroke: none; stroke-width: 1; stroke-dasharray: none; stroke-linecap: butt; stroke-dashoffset: 0; stroke-linejoin: miter; stroke-miterlimit: 4; fill: rgb(255,255,255); fill-rule: nonzero; opacity: 1;" vector-effect="non-scaling-stroke"  transform=" translate(-58.74, -1491.58)" d="M 117.49 1570.62 C 116.61 1580.31 116.61 1584.7199999999998 116.02 1593.2399999999998 L 114.55 1595.2399999999998 C 62.269999999999996 1595.2399999999998 57.86 1595.2399999999998 2.6400000000000006 1596.12 L 0.8800000000000006 1594.07 C 1.4700000000000006 1570.28 2.3500000000000005 1535.07 2.3500000000000005 1483.6299999999999 C 2.3500000000000005 1438.3899999999999 1.4700000000000006 1413.4199999999998 4.440892098500626e-16 1389.9199999999998 L 2.0000000000000004 1387.9199999999998 C 17.87 1387.6299999999999 20.8 1387.6299999999999 35.78 1387.0399999999997 L 37.550000000000004 1388.7999999999997 C 34.61000000000001 1443.7299999999998 34.61000000000001 1514.2199999999998 34.61000000000001 1521.2699999999998 C 34.61000000000001 1543.8899999999996 34.900000000000006 1555.9299999999998 35.20000000000001 1569.7399999999998 C 67.80000000000001 1569.7399999999998 76.61000000000001 1569.4399999999998 115.68 1568.2699999999998 Z" stroke-linecap="round" />
</g>
		<g transform="matrix(1 0 0 1 -3642.66 684.27)"  >
<path style="stroke: none; stroke-width: 1; stroke-dasharray: none; stroke-linecap: butt; stroke-dashoffset: 0; stroke-linejoin: miter; stroke-miterlimit: 4; fill: rgb(255,255,255); fill-rule: nonzero; opacity: 1;" vector-effect="non-scaling-stroke"  transform=" translate(-234.54, -1518.63)" d="M 304.59 1545.06 C 301.35999999999996 1559.46 295.19 1570.9099999999999 285.5 1580.61 C 272.58 1593.53 255.25 1598.52 234.69 1598.52 C 208.25 1598.52 191.51 1588.52 182.11 1578.84 C 162.11 1558.58 161.84 1528.62 161.84 1518.9199999999998 C 161.84 1507.7599999999998 162.43 1478.9799999999998 182.11 1459.3 C 190.33 1450.75 207.39000000000001 1438.75 236.74 1438.75 C 256.74 1438.75 276.4 1445.22 289.32 1459.9 C 302.83 1475.47 306.65 1496.0300000000002 307.24 1516.5900000000001 C 307.24 1526.56 306.65 1536.25 304.59 1545.06 Z M 266.7 1477.8 C 261.12 1468.69 251.7 1461.06 235.26999999999998 1461.06 C 229.68999999999997 1461.06 213.26999999999998 1461.6499999999999 202.95999999999998 1478.06 C 195.02999999999997 1490.06 194.14999999999998 1507.1399999999999 194.14999999999998 1519.48 C 194.14999999999998 1531.23 194.43999999999997 1560.9 217.64999999999998 1572.65 C 223.0610263140871 1575.2235139664408 228.98852819915933 1576.5266750848555 234.97999999999996 1576.46 C 245.84999999999997 1576.46 259.97999999999996 1572.94 268.46 1556.78 C 275.21999999999997 1543.57 275.51 1523.8899999999999 275.21999999999997 1517.72 C 275.22 1510.4 274.05 1490.75 266.7 1477.8 Z" stroke-linecap="round" />
</g>
		<g transform="matrix(1 0 0 1 -3455.7 684.25)"  >
<path style="stroke: none; stroke-width: 1; stroke-dasharray: none; stroke-linecap: butt; stroke-dashoffset: 0; stroke-linejoin: miter; stroke-miterlimit: 4; fill: rgb(255,255,255); fill-rule: nonzero; opacity: 1;" vector-effect="non-scaling-stroke"  transform=" translate(-421.5, -1518.62)" d="M 480.54 1560.34 C 479.36 1572.97 479.07 1574.4399999999998 478.19 1586.48 L 476.13 1588.54 C 467.61 1592.6499999999999 456.13 1598.54 435.6 1598.54 C 391.24 1598.54 362.46000000000004 1566.54 362.46000000000004 1520.7 C 362.46000000000004 1474 390.65000000000003 1438.7 436.18000000000006 1438.7 C 455.2800000000001 1438.7 468.7900000000001 1444.8700000000001 476.4200000000001 1448.1000000000001 L 477.6000000000001 1450.16 C 476.4200000000001 1460.73 476.13000000000005 1464.5500000000002 475.5400000000001 1473.3600000000001 L 473.19000000000005 1474.5400000000002 C 463.50000000000006 1467.5400000000002 452.34000000000003 1463.0800000000002 440.59000000000003 1463.0800000000002 C 416.21000000000004 1463.0800000000002 394.77000000000004 1481.88 394.77000000000004 1519.4800000000002 C 394.77000000000004 1559.4800000000002 417.38000000000005 1573.8200000000002 440.30000000000007 1573.8200000000002 C 460.30000000000007 1573.8200000000002 472.61000000000007 1563.5400000000002 478.19000000000005 1559.13 Z" stroke-linecap="round" />
</g>
		<g transform="matrix(1 0 0 1 -3290.77 684.4)"  >
<path style="stroke: none; stroke-width: 1; stroke-dasharray: none; stroke-linecap: butt; stroke-dashoffset: 0; stroke-linejoin: miter; stroke-miterlimit: 4; fill: rgb(255,255,255); fill-rule: nonzero; opacity: 1;" vector-effect="non-scaling-stroke"  transform=" translate(-586.43, -1518.77)" d="M 646.2 1534.75 C 646.2 1571.18 646.49 1574.41 647.96 1593.5 L 646.49 1594.97 C 632.69 1595.26 630.34 1595.56 616.82 1596.14 L 615.6500000000001 1594.38 L 615.94 1583.8100000000002 C 610.36 1588.2100000000003 597.1400000000001 1598.8100000000002 574.82 1598.8100000000002 C 545.45 1598.8100000000002 524.8900000000001 1578.8100000000002 524.8900000000001 1549.7500000000002 C 524.8900000000001 1510.3900000000003 557.7800000000001 1497.7500000000002 610.6600000000001 1491.6000000000001 L 615.6600000000001 1491.0100000000002 C 615.6600000000001 1483.0800000000002 615.6600000000001 1477.5000000000002 613.0200000000001 1472.8000000000002 C 610.08 1467.5100000000002 603.32 1461.9300000000003 588.6400000000001 1461.9300000000003 C 569.5400000000001 1461.9300000000003 556.3300000000002 1467.8000000000002 543.9900000000001 1473.0900000000004 L 541.6400000000001 1471.6200000000003 C 542.2300000000001 1458.1100000000004 542.2300000000001 1456.3500000000004 542.5200000000001 1450.1800000000003 L 544.2800000000001 1448.4200000000003 C 560.7300000000001 1442.5400000000002 577.7700000000001 1438.7200000000003 595.1000000000001 1438.7200000000003 C 616.8300000000002 1438.7200000000003 637.9800000000001 1446.0700000000002 644.1000000000001 1468.9800000000002 C 646.1600000000001 1477.2000000000003 646.1600000000001 1493.3600000000004 646.1600000000001 1505.6900000000003 Z M 613.3000000000001 1513.31 C 583.6300000000001 1517.72 556.0200000000001 1521.83 556.0200000000001 1547.97 C 556.0200000000001 1549.44 556.0200000000001 1574.7 583.9300000000001 1574.7 C 595.8728261583881 1574.7282676749699 607.3547370495232 1570.092446152674 615.9300000000001 1561.78 L 615.9300000000001 1512.78 Z" stroke-linecap="round" />
</g>
		<g transform="matrix(1 0 0 1 -3145.1 644.17)"  >
<path style="stroke: none; stroke-width: 1; stroke-dasharray: none; stroke-linecap: butt; stroke-dashoffset: 0; stroke-linejoin: miter; stroke-miterlimit: 4; fill: rgb(255,255,255); fill-rule: nonzero; opacity: 1;" vector-effect="non-scaling-stroke"  transform=" translate(-732.1, -1478.53)" d="M 748.12 1595 C 734.02 1595.29 731.12 1595.59 717.28 1596.17 L 715.81 1594.1200000000001 C 716.4 1573.2600000000002 717.28 1546.8300000000002 717.28 1490.43 C 717.28 1449.9 717.28 1406.43 714.3399999999999 1368.8300000000002 L 715.81 1367.0600000000002 C 730.1999999999999 1364.7100000000003 733.14 1364.13 747.81 1360.89 L 749.5699999999999 1362.95 C 747.51 1401.43 747.51 1440.2 747.51 1478.68 C 747.51 1543.01 748.4 1565.3300000000002 749.86 1593.24 Z" stroke-linecap="round" />
</g>
		<g transform="matrix(1 0 0 1 -2923.4 657.19)"  >
<path style="stroke: none; stroke-width: 1; stroke-dasharray: none; stroke-linecap: butt; stroke-dashoffset: 0; stroke-linejoin: miter; stroke-miterlimit: 4; fill: rgb(255,255,255); fill-rule: nonzero; opacity: 1;" vector-effect="non-scaling-stroke"  transform=" translate(-953.8, -1491.56)" d="M 971.39 1389.09 C 970.51 1408.77 969.93 1431.98 969.93 1482.5 C 969.93 1538.9 970.51 1562.98 972.28 1593.24 L 970.51 1595.24 C 957.59 1595.54 953.51 1595.54 937.91 1596.1200000000001 L 936.15 1594.0700000000002 C 936.73 1576.15 937.3199999999999 1560.5800000000002 937.3199999999999 1522.69 C 937.3199999999999 1478.3400000000001 937.3199999999999 1434.28 935.3199999999999 1390.22 L 936.78 1387.8700000000001 C 949.7099999999999 1387.8700000000001 954.41 1387.8700000000001 969.39 1386.99 Z" stroke-linecap="round" />
</g>
		<g transform="matrix(1 0 0 1 -2769.16 683.53)"  >
<path style="stroke: none; stroke-width: 1; stroke-dasharray: none; stroke-linecap: butt; stroke-dashoffset: 0; stroke-linejoin: miter; stroke-miterlimit: 4; fill: rgb(255,255,255); fill-rule: nonzero; opacity: 1;" vector-effect="non-scaling-stroke"  transform=" translate(-1108.04, -1517.89)" d="M 1173.44 1595 C 1159.3400000000001 1595.29 1157.5800000000002 1595.29 1144.0700000000002 1596.17 L 1142.0100000000002 1594.1200000000001 C 1142.0100000000002 1590.89 1142.3000000000002 1587.66 1142.3000000000002 1584.42 C 1142.6000000000001 1570.03 1142.6000000000001 1555.64 1142.6000000000001 1541.25 C 1142.6000000000001 1496.01 1142.3000000000002 1493.07 1140.8400000000001 1486.91 C 1135.2600000000002 1464.5800000000002 1118.5100000000002 1464.5800000000002 1114.4 1464.5800000000002 C 1096.7800000000002 1464.5800000000002 1083.26 1474.8600000000001 1075.3300000000002 1481.0300000000002 C 1075.0400000000002 1532.14 1075.63 1558.8700000000001 1077.68 1593.2400000000002 L 1075.92 1595.0000000000002 C 1061.53 1595.2900000000002 1059.18 1595.2900000000002 1045.0800000000002 1596.1700000000003 L 1043.6100000000001 1594.1200000000003 C 1043.9 1577.6700000000003 1044.4900000000002 1561.8100000000004 1044.4900000000002 1540.1200000000003 C 1044.4900000000002 1493.1200000000003 1042.4900000000002 1468.1200000000003 1040.9700000000003 1448.4800000000002 L 1042.7300000000002 1446.4200000000003 C 1057.4200000000003 1443.7800000000002 1060.0600000000002 1443.1900000000003 1073.8600000000004 1440.5500000000004 L 1075.9200000000003 1442.5500000000004 L 1075.6300000000003 1457.8300000000004 C 1083.2600000000004 1452.5400000000004 1101.4800000000002 1439.6100000000004 1127.3200000000004 1439.6100000000004 C 1134.6700000000003 1439.6100000000004 1143.7700000000004 1440.7900000000004 1151.7000000000005 1445.2000000000003 C 1159.3125345928677 1449.5197909977912 1165.28783495154 1456.2297018123238 1168.7000000000005 1464.2900000000002 C 1172.5200000000004 1473.1000000000001 1172.8100000000004 1481.91 1173.1100000000006 1500.1200000000001 L 1173.1100000000006 1534.49 C 1173.9900000000007 1568.86 1174.2800000000007 1582.08 1175.1100000000006 1593.24 Z" stroke-linecap="round" />
</g>
		<g transform="matrix(1 0 0 1 -2608.57 662.39)"  >
<path style="stroke: none; stroke-width: 1; stroke-dasharray: none; stroke-linecap: butt; stroke-dashoffset: 0; stroke-linejoin: miter; stroke-miterlimit: 4; fill: rgb(255,255,255); fill-rule: nonzero; opacity: 1;" vector-effect="non-scaling-stroke"  transform=" translate(-1268.63, -1496.75)" d="M 1311.2 1572.09 C 1310.32 1581.78 1310.32 1583.84 1310.02 1592.36 L 1308.55 1594.12 C 1301.3755350866231 1596.0209717436883 1293.9705302021978 1596.9095723298194 1286.55 1596.76 C 1279.55 1596.76 1261 1596.76 1251.8899999999999 1581.49 C 1246.61 1572.97 1246.61 1565.92 1246.61 1531.26 L 1247.1899999999998 1466.6399999999999 C 1236.9099999999999 1466.6399999999999 1236.62 1466.9299999999998 1226.0499999999997 1467.2299999999998 L 1224.8699999999997 1465.4599999999998 C 1225.4599999999996 1456.0599999999997 1225.4599999999996 1453.7099999999998 1225.4599999999996 1444.3199999999997 L 1227.2199999999996 1442.5499999999997 C 1233.6799999999996 1442.5499999999997 1237.4999999999995 1442.8499999999997 1247.2199999999996 1442.5499999999997 C 1246.9299999999996 1436.3799999999997 1246.9299999999996 1429.9199999999996 1246.9299999999996 1423.7499999999998 Q 1246.4999999999995 1415.3799999999999 1246.0499999999995 1407.0099999999998 L 1247.5199999999995 1404.9499999999998 C 1260.7399999999996 1401.7199999999998 1263.9699999999996 1400.84 1277.5199999999995 1396.7299999999998 L 1279.5199999999995 1398.1999999999998 C 1278.6399999999994 1417.58 1278.3499999999995 1421.3999999999999 1278.3499999999995 1442.85 C 1290.6899999999994 1442.55 1294.2099999999994 1442.55 1310.9499999999994 1441.9599999999998 L 1312.3899999999994 1443.7499999999998 C 1311.7999999999995 1451.3799999999999 1311.5099999999993 1454.6199999999997 1311.5099999999993 1464.5999999999997 L 1310.0399999999993 1466.3599999999997 C 1295.3599999999992 1466.0699999999997 1293.5899999999992 1465.7799999999997 1278.0399999999993 1465.7799999999997 L 1277.4499999999994 1520.4099999999999 C 1277.7399999999993 1523.9399999999998 1277.7399999999993 1540.6799999999998 1277.7399999999993 1544.79 C 1277.7399999999993 1566.23 1280.3899999999994 1572.99 1295.0699999999993 1572.99 C 1299.8902676735802 1572.9624764372495 1304.666292378804 1572.0682420243566 1309.1699999999992 1570.35 Z" stroke-linecap="round" />
</g>
		<g transform="matrix(1 0 0 1 -2451.84 684.41)"  >
<path style="stroke: none; stroke-width: 1; stroke-dasharray: none; stroke-linecap: butt; stroke-dashoffset: 0; stroke-linejoin: miter; stroke-miterlimit: 4; fill: rgb(255,255,255); fill-rule: nonzero; opacity: 1;" vector-effect="non-scaling-stroke"  transform=" translate(-1425.35, -1518.78)" d="M 1487.14 1559.46 C 1485.67 1571.21 1485.38 1574.14 1484.7900000000002 1585.6000000000001 L 1483.0300000000002 1587.66 C 1478.0300000000002 1590.3000000000002 1462.1700000000003 1598.8200000000002 1436.0300000000002 1598.8200000000002 C 1387.8600000000001 1598.8200000000002 1357.6000000000001 1571.2100000000003 1357.6000000000001 1520.1000000000001 C 1357.6000000000001 1465.46 1390.5000000000002 1438.73 1428.98 1438.73 C 1452.18 1438.73 1468.34 1448.43 1477.15 1459 C 1493.9 1479 1493.3100000000002 1508.06 1493.01 1521 L 1491.01 1522.76 C 1445.19 1522.47 1437.25 1522.47 1389.08 1522.76 C 1389.3799999999999 1533.04 1390.26 1547.44 1400.24 1559.48 C 1412.24 1573.8700000000001 1429.03 1575.34 1438.14 1575.34 C 1446.8453007357691 1575.3315496957712 1455.4855524192456 1573.8402185832806 1463.69 1570.9299999999998 C 1471.4174805016935 1567.8455192209701 1478.5681556500417 1563.4773526528065 1484.8400000000001 1558.0099999999998 Z M 1459.8200000000002 1482.75 C 1453.9500000000003 1466.6 1441.0200000000002 1459.84 1427.8200000000002 1459.84 C 1411.38 1459.84 1391.9900000000002 1471 1389.0500000000002 1500.3799999999999 C 1424.5900000000001 1500.6699999999998 1435.7600000000002 1500.3799999999999 1462.7800000000002 1500.08 C 1462.47 1496 1462.17 1489.55 1459.82 1482.75 Z" stroke-linecap="round" />
</g>
		<g transform="matrix(1 0 0 1 -2264.78 720.82)"  >
<path style="stroke: none; stroke-width: 1; stroke-dasharray: none; stroke-linecap: butt; stroke-dashoffset: 0; stroke-linejoin: miter; stroke-miterlimit: 4; fill: rgb(255,255,255); fill-rule: nonzero; opacity: 1;" vector-effect="non-scaling-stroke"  transform=" translate(-1612.42, -1555.18)" d="M 1588.47 1559.46 C 1596.1100000000001 1561.46 1633.71 1570.6200000000001 1641.93 1573.26 C 1650.15 1575.8999999999999 1677.77 1584.42 1677.77 1616.44 C 1677.77 1641.7 1656.33 1668.73 1609.33 1668.73 C 1565.56 1668.73 1542.9399999999998 1647.58 1542.9399999999998 1622.6100000000001 C 1542.9399999999998 1601.17 1557.6299999999999 1589.1200000000001 1569.09 1580.0200000000002 C 1562.9199999999998 1577.3700000000001 1560.86 1576.4900000000002 1555.28 1573.8500000000001 L 1554.69 1570.3300000000002 C 1563.8 1557.1100000000001 1567.3200000000002 1551.8200000000002 1574.69 1540.3300000000002 C 1555.01 1532.39 1546.49 1514.18 1546.49 1496.2600000000002 C 1546.4266088320464 1487.178624234502 1548.5424657397052 1478.2145238185858 1552.66 1470.1200000000001 C 1566.76 1443.1200000000001 1596.13 1441.63 1612.2900000000002 1441.63 C 1616.9900000000002 1441.63 1622.8600000000001 1441.92 1628.7300000000002 1441.92 L 1636.0800000000002 1442.22 C 1652.8200000000002 1442.51 1659.2800000000002 1442.51 1680.43 1442.22 L 1681.9 1443.98 C 1681.02 1453.98 1681.02 1453.98 1680.43 1463.3700000000001 L 1678.67 1465.13 L 1654 1463.3700000000001 C 1664.57 1472.47 1667.8 1485.1000000000001 1667.8 1496.2600000000002 C 1667.8 1523.5800000000002 1646.95 1547.0800000000002 1610.23 1547.0800000000002 C 1605.9076411256005 1547.1019657002907 1601.589461333799 1546.8078481912517 1597.31 1546.2 Z M 1589.3500000000001 1587.95 C 1579.0700000000002 1598.23 1572.0200000000002 1606.75 1572.0200000000002 1619.95 C 1572.0200000000002 1630.81 1580.8400000000001 1649.03 1610.8000000000002 1649.03 C 1634.88 1649.03 1646.3400000000001 1636.1 1646.3400000000001 1622.3 C 1646.3400000000001 1602.9099999999999 1629.0100000000002 1598.5 1610.5000000000002 1593.51 Z M 1607.8600000000001 1461.65 C 1588.7700000000002 1461.65 1576.72 1475.74 1576.72 1495.13 C 1576.72 1509.5200000000002 1584.07 1527.73 1607.8600000000001 1527.73 C 1631.95 1527.73 1638.1100000000001 1508.94 1637.8600000000001 1495.13 C 1637.5300000000002 1479.2700000000002 1629.8600000000001 1461.65 1607.8600000000001 1461.65 Z" stroke-linecap="round" />
</g>
		<g transform="matrix(1 0 0 1 -2097.67 683.23)"  >
<path style="stroke: none; stroke-width: 1; stroke-dasharray: none; stroke-linecap: butt; stroke-dashoffset: 0; stroke-linejoin: miter; stroke-miterlimit: 4; fill: rgb(255,255,255); fill-rule: nonzero; opacity: 1;" vector-effect="non-scaling-stroke"  transform=" translate(-1779.53, -1517.6)" d="M 1810.83 1473.1 C 1807.1289137023398 1471.4442214486867 1803.1336587226826 1470.5465641596404 1799.08 1470.4599999999998 C 1794.6754869869576 1470.459290373921 1790.373773666813 1471.7909390678394 1786.74 1474.2799999999997 C 1774.74 1482.7899999999997 1774.74 1495.7199999999998 1774.74 1526.2799999999997 C 1774.74 1559.4699999999998 1775.6200000000001 1576.7999999999997 1776.74 1593.2799999999997 L 1775.27 1595.2799999999997 C 1761.47 1595.2799999999997 1758.27 1595.5799999999997 1744.1399999999999 1596.1599999999999 L 1742.6699999999998 1594.3999999999999 C 1742.9599999999998 1572.08 1743.2599999999998 1551.81 1743.2599999999998 1524.4899999999998 C 1743.2599999999998 1477.4899999999998 1742.3799999999997 1465.4899999999998 1740.6099999999997 1448.4199999999998 L 1742.3799999999997 1446.36 C 1753.5399999999997 1444.36 1760.5899999999997 1442.84 1772.9199999999996 1440.49 L 1774.6899999999996 1442.25 L 1773.2199999999996 1467.25 C 1776.7399999999996 1457.85 1784.0899999999995 1439.05 1809.0499999999995 1439.05 C 1811.8206137184407 1438.9670064601287 1814.589571478661 1439.26307970788 1817.2799999999995 1439.93 L 1818.4499999999996 1441.69 C 1815.5199999999995 1455.79 1814.9299999999996 1458.69 1812.8699999999997 1471.69 Z" stroke-linecap="round" />
</g>
		<g transform="matrix(1 0 0 1 -1955.2 684.4)"  >
<path style="stroke: none; stroke-width: 1; stroke-dasharray: none; stroke-linecap: butt; stroke-dashoffset: 0; stroke-linejoin: miter; stroke-miterlimit: 4; fill: rgb(255,255,255); fill-rule: nonzero; opacity: 1;" vector-effect="non-scaling-stroke"  transform=" translate(-1922, -1518.77)" d="M 1981.77 1534.75 C 1981.77 1571.18 1982.07 1574.41 1983.54 1593.5 L 1982.07 1594.97 C 1968.26 1595.26 1965.9099999999999 1595.56 1952.3999999999999 1596.14 L 1951.2299999999998 1594.38 L 1951.5199999999998 1583.8100000000002 C 1945.9399999999998 1588.2100000000003 1932.7199999999998 1598.8100000000002 1910.3999999999999 1598.8100000000002 C 1881.0199999999998 1598.8100000000002 1860.4599999999998 1578.8100000000002 1860.4599999999998 1549.7500000000002 C 1860.4599999999998 1510.3900000000003 1893.36 1497.7500000000002 1946.2299999999998 1491.6000000000001 L 1951.2299999999998 1491.0100000000002 C 1951.2299999999998 1483.0800000000002 1951.2299999999998 1477.5000000000002 1948.5799999999997 1472.8000000000002 C 1945.6499999999996 1467.5100000000002 1938.8899999999996 1461.9300000000003 1924.1999999999996 1461.9300000000003 C 1905.1099999999997 1461.9300000000003 1891.8899999999996 1467.8000000000002 1879.5599999999995 1473.0900000000004 L 1877.2099999999996 1471.6200000000003 C 1877.7899999999995 1458.1100000000004 1877.7899999999995 1456.3500000000004 1878.0899999999997 1450.1800000000003 L 1879.8499999999997 1448.4200000000003 C 1896.2999999999997 1442.5400000000002 1913.3399999999997 1438.7200000000003 1930.6699999999996 1438.7200000000003 C 1952.3999999999996 1438.7200000000003 1973.5499999999997 1446.0700000000002 1979.6699999999996 1468.9800000000002 C 1981.6699999999996 1477.2000000000003 1981.6699999999996 1493.3600000000004 1981.6699999999996 1505.6900000000003 Z M 1948.8799999999999 1513.31 C 1919.2099999999998 1517.72 1891.6 1521.83 1891.6 1547.97 C 1891.6 1549.44 1891.6 1574.7 1919.5 1574.7 C 1931.4424170337554 1574.7261486842913 1942.9235602336507 1570.0906371173337 1951.5 1561.78 L 1951.5 1512.78 Z" stroke-linecap="round" />
</g>
		<g transform="matrix(1 0 0 1 -1800.55 662.39)"  >
<path style="stroke: none; stroke-width: 1; stroke-dasharray: none; stroke-linecap: butt; stroke-dashoffset: 0; stroke-linejoin: miter; stroke-miterlimit: 4; fill: rgb(255,255,255); fill-rule: nonzero; opacity: 1;" vector-effect="non-scaling-stroke"  transform=" translate(-2076.65, -1496.75)" d="M 2119.24 1572.09 C 2118.3599999999997 1581.78 2118.3599999999997 1583.84 2118.06 1592.36 L 2116.6 1594.12 C 2109.425535086623 1596.0209717436883 2102.0205302021977 1596.9095723298194 2094.6 1596.76 C 2087.6 1596.76 2069.04 1596.76 2059.94 1581.49 C 2054.65 1572.97 2054.65 1565.92 2054.65 1531.26 L 2055.2400000000002 1466.6399999999999 C 2044.9500000000003 1466.6399999999999 2044.6600000000003 1466.9299999999998 2034.0900000000001 1467.2299999999998 L 2032.91 1465.4599999999998 C 2033.5 1456.0599999999997 2033.5 1453.7099999999998 2033.5 1444.3199999999997 L 2035.26 1442.5499999999997 C 2041.72 1442.5499999999997 2045.54 1442.8499999999997 2055.26 1442.5499999999997 C 2054.96 1436.3799999999997 2054.96 1429.9199999999996 2054.96 1423.7499999999998 Q 2054.53 1415.3799999999999 2054.08 1407.0099999999998 L 2055.5499999999997 1404.9499999999998 C 2068.7699999999995 1401.7199999999998 2071.9999999999995 1400.84 2085.5499999999997 1396.7299999999998 L 2087.6099999999997 1398.1999999999998 C 2086.7299999999996 1417.58 2086.43 1421.3999999999999 2086.43 1442.85 C 2098.77 1442.55 2102.29 1442.55 2119.04 1441.9599999999998 L 2120.39 1443.7499999999998 C 2119.81 1451.3799999999999 2119.5099999999998 1454.6199999999997 2119.5099999999998 1464.5999999999997 L 2118.04 1466.3599999999997 C 2103.36 1466.0699999999997 2101.6 1465.7799999999997 2086.04 1465.7799999999997 L 2085.45 1520.4099999999999 C 2085.74 1523.9399999999998 2085.74 1540.6799999999998 2085.74 1544.79 C 2085.74 1566.23 2088.39 1572.99 2103.0699999999997 1572.99 C 2107.8902676735806 1572.9624764372495 2112.6662923788044 1572.0682420243566 2117.1699999999996 1570.35 Z" stroke-linecap="round" />
</g>
		<g transform="matrix(1 0 0 1 -1643.8 684.41)"  >
<path style="stroke: none; stroke-width: 1; stroke-dasharray: none; stroke-linecap: butt; stroke-dashoffset: 0; stroke-linejoin: miter; stroke-miterlimit: 4; fill: rgb(255,255,255); fill-rule: nonzero; opacity: 1;" vector-effect="non-scaling-stroke"  transform=" translate(-2233.4, -1518.78)" d="M 2295.18 1559.46 C 2293.71 1571.21 2293.4199999999996 1574.14 2292.83 1585.6000000000001 L 2291.0699999999997 1587.66 C 2286.0699999999997 1590.3000000000002 2270.2099999999996 1598.8200000000002 2244.0699999999997 1598.8200000000002 C 2195.8999999999996 1598.8200000000002 2165.64 1571.2100000000003 2165.64 1520.1000000000001 C 2165.64 1465.46 2198.54 1438.73 2237.02 1438.73 C 2260.23 1438.73 2276.38 1448.43 2285.19 1459 C 2301.94 1479 2301.35 1508.06 2301.06 1521 L 2299 1522.76 C 2253.18 1522.47 2245.25 1522.47 2197.07 1522.76 C 2197.3700000000003 1533.04 2198.25 1547.44 2208.2400000000002 1559.48 C 2220.2400000000002 1573.8700000000001 2237.0200000000004 1575.34 2246.13 1575.34 C 2254.835300735769 1575.3315496957712 2263.4755524192456 1573.8402185832808 2271.6800000000003 1570.9299999999998 C 2279.407480501694 1567.8455192209701 2286.558155650042 1563.4773526528065 2292.8300000000004 1558.0099999999998 Z M 2267.8599999999997 1482.75 C 2261.99 1466.6 2249.0599999999995 1459.84 2235.8599999999997 1459.84 C 2219.41 1459.84 2200.0199999999995 1471 2197.0799999999995 1500.3799999999999 C 2232.6299999999997 1500.6699999999998 2243.7899999999995 1500.3799999999999 2270.8099999999995 1500.08 C 2270.51 1496 2270.21 1489.55 2267.86 1482.75 Z" stroke-linecap="round" />
</g>
		<g transform="matrix(1 0 0 1 -1453.53 645.15)"  >
<path style="stroke: none; stroke-width: 1; stroke-dasharray: none; stroke-linecap: butt; stroke-dashoffset: 0; stroke-linejoin: miter; stroke-miterlimit: 4; fill: rgb(255,255,255); fill-rule: nonzero; opacity: 1;" vector-effect="non-scaling-stroke"  transform=" translate(-2423.67, -1479.51)" d="M 2460.26 1367.06 C 2475.26 1364.4199999999998 2478.17 1363.83 2491.3900000000003 1360.8899999999999 L 2493.4500000000003 1362.6599999999999 C 2491.3900000000003 1403.4899999999998 2491.1000000000004 1476.33 2491.1000000000004 1505.6599999999999 C 2491.1000000000004 1551.1899999999998 2492.2700000000004 1572.9299999999998 2493.4500000000003 1593.1999999999998 L 2491.9800000000005 1595.1999999999998 C 2479.0500000000006 1595.1999999999998 2475.5300000000007 1595.4999999999998 2461.9800000000005 1596.08 L 2459.9200000000005 1594.32 L 2460.5100000000007 1583.45 C 2453.5100000000007 1588.74 2441.4200000000005 1598.14 2419.9700000000007 1598.14 C 2380.9100000000008 1598.14 2353.8800000000006 1567.3000000000002 2353.8800000000006 1522.65 C 2353.8800000000006 1490.65 2367.4000000000005 1470.3700000000001 2379.7300000000005 1459.5 C 2401.1800000000003 1440.11 2429.0800000000004 1439.23 2444.3500000000004 1439.23 C 2450.5200000000004 1439.23 2453.4600000000005 1439.23 2461.3500000000004 1439.82 C 2461.6400000000003 1403.3999999999999 2460.1800000000003 1385.82 2458.7100000000005 1368.74 Z M 2460.55 1463.7 C 2455.55 1463.41 2452.03 1462.82 2445.86 1462.82 C 2436.76 1462.82 2417.3700000000003 1463.4099999999999 2403.27 1476.6299999999999 C 2396.81 1482.79 2386.27 1496.6299999999999 2386.27 1522.7399999999998 C 2386.27 1539.4799999999998 2390.96 1551.5299999999997 2397.13 1558.87 C 2402.42 1565.04 2412.13 1572.09 2427.3900000000003 1572.09 C 2445.3100000000004 1572.09 2456.1700000000005 1562.6899999999998 2460.2900000000004 1559.1599999999999 C 2460.8400000000006 1520.6799999999998 2460.8400000000006 1511.87 2460.5500000000006 1463.7499999999998 Z" stroke-linecap="round" />
</g>
		<g transform="matrix(1 0 0 1 -1116.17 657.19)"  >
<path style="stroke: none; stroke-width: 1; stroke-dasharray: none; stroke-linecap: butt; stroke-dashoffset: 0; stroke-linejoin: miter; stroke-miterlimit: 4; fill: rgb(255,255,255); fill-rule: nonzero; opacity: 1;" vector-effect="non-scaling-stroke"  transform=" translate(-2761.03, -1491.55)" d="M 2843.57 1593.24 L 2842.1000000000004 1595.24 C 2824.7700000000004 1595.24 2823.6000000000004 1595.24 2805.9700000000003 1596.1200000000001 L 2803.6200000000003 1594.0700000000002 C 2786.2900000000004 1563.2300000000002 2768.9600000000005 1532.38 2751.34 1501.5400000000002 L 2704.9300000000003 1418.7000000000003 L 2707.8700000000003 1519.4500000000003 C 2708.1600000000003 1531.7900000000002 2708.7500000000005 1543.8300000000004 2709.0400000000004 1556.1700000000003 C 2709.9200000000005 1580.5500000000004 2709.9200000000005 1581.1700000000003 2710.51 1593.1700000000003 L 2708.75 1595.1700000000003 C 2695.82 1595.1700000000003 2694.65 1595.1700000000003 2680.55 1596.0500000000004 L 2678.79 1594.0000000000005 C 2679.96 1566.0900000000004 2680.25 1537.9000000000005 2680.25 1510.0000000000005 C 2680.25 1470.0000000000005 2679.96 1429.8100000000004 2678.49 1389.8600000000004 L 2679.9599999999996 1387.8600000000004 C 2698.1699999999996 1387.5700000000004 2701.1099999999997 1387.5700000000004 2717.8499999999995 1386.9800000000002 L 2720.7899999999995 1388.9800000000002 C 2740.7899999999995 1424.8200000000002 2761.3199999999997 1462.1200000000003 2780.7099999999996 1496.1900000000003 L 2817.1299999999997 1560.5200000000002 L 2814.7799999999997 1463.0000000000002 C 2813.6099999999997 1416.8900000000003 2813.31 1410.1300000000003 2812.14 1389.8600000000001 L 2813.9 1387.8600000000001 C 2827.12 1387.8600000000001 2830.06 1387.5700000000002 2841.81 1386.98 L 2843.57 1388.98 C 2842.98 1424.82 2842.3900000000003 1461.54 2842.3900000000003 1497.66 C 2842.3900000000003 1525.28 2842.6900000000005 1553.18 2843.28 1580.79 Z" stroke-linecap="round" />
</g>
		<g transform="matrix(1 0 0 1 -902.14 684.41)"  >
<path style="stroke: none; stroke-width: 1; stroke-dasharray: none; stroke-linecap: butt; stroke-dashoffset: 0; stroke-linejoin: miter; stroke-miterlimit: 4; fill: rgb(255,255,255); fill-rule: nonzero; opacity: 1;" vector-effect="non-scaling-stroke"  transform=" translate(-2975.06, -1518.78)" d="M 3036.84 1559.46 C 3035.3700000000003 1571.21 3035.08 1574.14 3034.4900000000002 1585.6000000000001 L 3032.73 1587.66 C 3027.73 1590.3000000000002 3011.87 1598.8200000000002 2985.73 1598.8200000000002 C 2937.56 1598.8200000000002 2907.31 1571.2100000000003 2907.31 1520.1000000000001 C 2907.31 1465.46 2940.2 1438.73 2978.68 1438.73 C 3001.89 1438.73 3018.04 1448.43 3026.8599999999997 1459 C 3043.5999999999995 1479 3043.0099999999998 1508.06 3042.72 1521 L 3040.66 1522.76 C 2994.8399999999997 1522.47 2986.91 1522.47 2938.74 1522.76 C 2939.0299999999997 1533.04 2939.91 1547.44 2949.8999999999996 1559.48 C 2961.8999999999996 1573.8700000000001 2978.68 1575.34 2987.7899999999995 1575.34 C 2996.4953007357685 1575.3315496957712 3005.135552419245 1573.8402185832808 3013.3399999999997 1570.9299999999998 C 3021.0674805016934 1567.8455192209701 3028.2181556500414 1563.4773526528065 3034.49 1558.0099999999998 Z M 3009.52 1482.75 C 3003.65 1466.6 2990.73 1459.84 2977.52 1459.84 C 2961.07 1459.84 2941.68 1471 2938.75 1500.3799999999999 C 2974.29 1500.6699999999998 2985.45 1500.3799999999999 3012.47 1500.08 C 3012.17 1496 3011.87 1489.55 3009.52 1482.75 Z" stroke-linecap="round" />
</g>
		<g transform="matrix(1 0 0 1 -748.95 662.39)"  >
<path style="stroke: none; stroke-width: 1; stroke-dasharray: none; stroke-linecap: butt; stroke-dashoffset: 0; stroke-linejoin: miter; stroke-miterlimit: 4; fill: rgb(255,255,255); fill-rule: nonzero; opacity: 1;" vector-effect="non-scaling-stroke"  transform=" translate(-3128.25, -1496.75)" d="M 3170.78 1572.09 C 3169.9 1581.78 3169.9 1583.84 3169.61 1592.36 L 3168.1400000000003 1594.12 C 3160.9655350866233 1596.0209717436883 3153.560530202198 1596.9095723298194 3146.1400000000003 1596.76 C 3139.1400000000003 1596.76 3120.5800000000004 1596.76 3111.4800000000005 1581.49 C 3106.1900000000005 1572.97 3106.1900000000005 1565.92 3106.1900000000005 1531.26 L 3106.7800000000007 1466.6399999999999 C 3096.5000000000005 1466.6399999999999 3096.2000000000007 1466.9299999999998 3085.6300000000006 1467.2299999999998 L 3084.4500000000007 1465.4599999999998 C 3085.040000000001 1456.0599999999997 3085.040000000001 1453.7099999999998 3085.040000000001 1444.3199999999997 L 3086.800000000001 1442.5499999999997 C 3093.270000000001 1442.5499999999997 3097.0800000000013 1442.8499999999997 3106.800000000001 1442.5499999999997 C 3106.500000000001 1436.3799999999997 3106.500000000001 1429.9199999999996 3106.500000000001 1423.7499999999998 Q 3106.070000000001 1415.3799999999999 3105.620000000001 1407.0099999999998 L 3107.0900000000006 1404.9499999999998 C 3120.3100000000004 1401.7199999999998 3123.5400000000004 1400.84 3137.0900000000006 1396.7299999999998 L 3139.1500000000005 1398.1999999999998 C 3138.2700000000004 1417.58 3137.9700000000007 1421.3999999999999 3137.9700000000007 1442.85 C 3150.310000000001 1442.55 3153.830000000001 1442.55 3170.580000000001 1441.9599999999998 L 3172.0500000000006 1443.7299999999998 C 3171.4600000000005 1451.36 3171.1600000000008 1454.5999999999997 3171.1600000000008 1464.5799999999997 L 3169.7000000000007 1466.3399999999997 C 3155.0100000000007 1466.0499999999997 3153.250000000001 1465.7599999999998 3137.7000000000007 1465.7599999999998 L 3137.1100000000006 1520.3899999999999 C 3137.4100000000008 1523.9199999999998 3137.4100000000008 1540.6599999999999 3137.4100000000008 1544.77 C 3137.4100000000008 1566.21 3140.0500000000006 1572.97 3154.7400000000007 1572.97 C 3159.557008072826 1572.9423651583852 3164.3297319167705 1572.04811455881 3168.830000000001 1570.33 Z" stroke-linecap="round" />
</g>
		<g transform="matrix(1 0 0 1 -556.71 684.12)"  >
<path style="stroke: none; stroke-width: 1; stroke-dasharray: none; stroke-linecap: butt; stroke-dashoffset: 0; stroke-linejoin: miter; stroke-miterlimit: 4; fill: rgb(255,255,255); fill-rule: nonzero; opacity: 1;" vector-effect="non-scaling-stroke"  transform=" translate(-3320.49, -1518.48)" d="M 3392.84 1595 C 3373.1600000000003 1595.29 3370.84 1595.29 3352.84 1596.17 L 3350.78 1594.1200000000001 C 3347.26 1576.2 3341.6800000000003 1552.41 3336.69 1531.5500000000002 L 3319.69 1461.0600000000002 L 3302.34 1533.3200000000002 C 3293.53 1568.8600000000001 3290.59 1580.3200000000002 3287.9500000000003 1593.2400000000002 L 3286.1800000000003 1595.0000000000002 C 3265.6200000000003 1595.2900000000002 3264.1800000000003 1595.2900000000002 3245.65 1596.1700000000003 L 3243.89 1594.1200000000003 C 3230.96 1541.5400000000004 3208.89 1464.5800000000004 3202.7599999999998 1445.2000000000003 L 3203.9399999999996 1443.1400000000003 C 3218.0399999999995 1442.2600000000002 3221.8599999999997 1442.2600000000002 3235.9399999999996 1440.7900000000004 L 3237.7 1442.5500000000004 C 3239.46 1452.2500000000005 3241.52 1461.3500000000004 3254.1499999999996 1515.6900000000005 L 3268.2499999999995 1576.2000000000005 L 3287.3399999999997 1497.2000000000005 C 3296.1499999999996 1458.1300000000006 3296.74 1454.3100000000004 3298.4999999999995 1444.9100000000005 L 3300.5599999999995 1442.8600000000006 C 3317.8899999999994 1442.8600000000006 3322.8799999999997 1442.8600000000006 3342.2699999999995 1441.9700000000005 L 3344.0299999999997 1444.0300000000004 C 3348.14 1464.3000000000004 3355.1899999999996 1492.5000000000005 3360.4799999999996 1514.8200000000004 L 3376.0499999999997 1577.0900000000004 L 3392.49 1508.6500000000003 L 3399.49 1477.8100000000004 C 3404.49 1457.8100000000004 3405.0699999999997 1455.4900000000005 3406.8399999999997 1444.3300000000004 L 3408.8399999999997 1442.5600000000004 C 3413.5399999999995 1442.5600000000004 3418.5399999999995 1442.8600000000004 3423.24 1442.8600000000004 C 3425.494165720795 1442.9100259290633 3427.749160051998 1442.8098039587876 3429.99 1442.5600000000004 L 3436.45 1442.5600000000004 L 3438.22 1444.3300000000004 C 3432.64 1461.0700000000004 3406.79 1543.0200000000004 3394.74 1593.2500000000005 Z" stroke-linecap="round" />
</g>
		<g transform="matrix(1 0 0 1 -325.26 684.26)"  >
<path style="stroke: none; stroke-width: 1; stroke-dasharray: none; stroke-linecap: butt; stroke-dashoffset: 0; stroke-linejoin: miter; stroke-miterlimit: 4; fill: rgb(255,255,255); fill-rule: nonzero; opacity: 1;" vector-effect="non-scaling-stroke"  transform=" translate(-3551.94, -1518.63)" d="M 3622 1545.06 C 3618.76 1559.46 3612.6 1570.9099999999999 3602.9 1580.61 C 3589.98 1593.53 3572.65 1598.52 3552.09 1598.52 C 3525.65 1598.52 3508.9100000000003 1588.52 3499.51 1578.84 C 3479.51 1558.58 3479.2400000000002 1528.62 3479.2400000000002 1518.9199999999998 C 3479.2400000000002 1507.7599999999998 3479.8300000000004 1478.9799999999998 3499.51 1459.3 C 3507.73 1450.78 3524.7700000000004 1438.73 3554.1400000000003 1438.73 C 3574.1400000000003 1438.73 3593.8 1445.2 3606.7200000000003 1459.88 C 3620.2300000000005 1475.45 3624.05 1496.0100000000002 3624.6400000000003 1516.5700000000002 C 3624.59 1526.56 3624 1536.25 3622 1545.06 Z M 3584.1 1477.8 C 3578.52 1468.69 3569.1 1461.06 3552.68 1461.06 C 3547.0899999999997 1461.06 3530.68 1461.6499999999999 3520.3599999999997 1478.06 C 3512.43 1490.06 3511.5499999999997 1507.1399999999999 3511.5499999999997 1519.48 C 3511.5499999999997 1531.23 3511.85 1560.9 3535.0499999999997 1572.65 C 3540.4610263140867 1575.2235139664408 3546.3885281991593 1576.5266750848555 3552.3799999999997 1576.46 C 3563.2499999999995 1576.46 3577.3799999999997 1572.94 3585.8699999999994 1556.78 C 3592.6199999999994 1543.57 3592.8699999999994 1523.8899999999999 3592.6199999999994 1517.72 C 3592.6199999999994 1510.4 3591.4399999999996 1490.72 3584.0999999999995 1477.8 Z" stroke-linecap="round" />
</g>
		<g transform="matrix(1 0 0 1 -152.61 683.23)"  >
<path style="stroke: none; stroke-width: 1; stroke-dasharray: none; stroke-linecap: butt; stroke-dashoffset: 0; stroke-linejoin: miter; stroke-miterlimit: 4; fill: rgb(255,255,255); fill-rule: nonzero; opacity: 1;" vector-effect="non-scaling-stroke"  transform=" translate(-3724.59, -1517.6)" d="M 3755.88 1473.1 C 3752.1839881613964 1471.4395586901046 3748.1910370693686 1470.541654867025 3744.1400000000003 1470.4599999999998 C 3739.7354869869578 1470.459290373921 3735.433773666813 1471.7909390678394 3731.8 1474.2799999999997 C 3719.8 1482.7899999999997 3719.8 1495.7199999999998 3719.8 1526.2799999999997 C 3719.8 1559.4699999999998 3720.6800000000003 1576.7999999999997 3721.8 1593.2799999999997 L 3720.3300000000004 1595.2799999999997 C 3706.53 1595.2799999999997 3703.3300000000004 1595.5799999999997 3689.2000000000003 1596.1599999999999 L 3687.7300000000005 1594.3999999999999 C 3688.0200000000004 1572.08 3688.3200000000006 1551.81 3688.3200000000006 1524.4899999999998 C 3688.3200000000006 1477.4899999999998 3687.4400000000005 1465.4899999999998 3685.6700000000005 1448.4199999999998 L 3687.4400000000005 1446.36 C 3698.6000000000004 1444.36 3705.6500000000005 1442.84 3717.9800000000005 1440.49 L 3719.7500000000005 1442.25 L 3718.2800000000007 1467.25 C 3721.8000000000006 1457.85 3729.140000000001 1439.05 3754.1100000000006 1439.05 C 3756.8806137184415 1438.9670064601287 3759.649571478662 1439.26307970788 3762.3400000000006 1439.93 L 3763.5100000000007 1441.69 C 3760.5700000000006 1455.79 3759.9900000000007 1458.69 3757.9300000000007 1471.69 Z" stroke-linecap="round" />
</g>
		<g transform="matrix(1 0 0 1 0.29 644.29)"  >
<path style="stroke: none; stroke-width: 1; stroke-dasharray: none; stroke-linecap: butt; stroke-dashoffset: 0; stroke-linejoin: miter; stroke-miterlimit: 4; fill: rgb(255,255,255); fill-rule: nonzero; opacity: 1;" vector-effect="non-scaling-stroke"  transform=" translate(-3877.49, -1478.66)" d="M 3941.52 1595 L 3928.89 1595 C 3921.334736180944 1594.994495944555 3913.7843773203786 1595.3850317476877 3906.27 1596.17 L 3903.92 1594.41 C 3888.35 1568.27 3858.69 1525.68 3845.76 1507.47 L 3846.3500000000004 1543.6000000000001 C 3846.6400000000003 1570.6000000000001 3847.53 1582.3700000000001 3848.1100000000006 1593.2400000000002 L 3846.640000000001 1595.2400000000002 C 3831.640000000001 1595.5400000000002 3829.640000000001 1595.5400000000002 3816.100000000001 1596.1200000000003 L 3814.330000000001 1594.3600000000004 C 3814.920000000001 1575.5600000000004 3815.5100000000007 1554.7100000000003 3815.5100000000007 1511.5300000000004 C 3815.5100000000007 1496.2500000000005 3815.5100000000007 1480.6900000000005 3815.2200000000007 1465.4100000000005 C 3815.2200000000007 1411.0700000000006 3814.330000000001 1396.0900000000006 3812.2800000000007 1369.0700000000006 L 3814.040000000001 1367.0100000000007 C 3827.550000000001 1364.6600000000008 3830.4900000000007 1364.0800000000006 3845.4700000000007 1361.1400000000008 L 3847.5300000000007 1362.9000000000008 C 3846.640000000001 1393.1500000000008 3846.060000000001 1407.2500000000007 3846.060000000001 1445.1500000000008 L 3846.060000000001 1506 C 3862.8000000000006 1485.73 3879.840000000001 1465.76 3895.400000000001 1444.32 L 3898.050000000001 1442.55 C 3906.860000000001 1442.26 3914.500000000001 1442.26 3930.360000000001 1441.6699999999998 L 3931.240000000001 1444.32 C 3905.3900000000012 1473.3899999999999 3901.570000000001 1478.09 3879.5400000000013 1503.6499999999999 C 3907.1500000000015 1543.3 3914.200000000001 1553.29 3942.6900000000014 1592.06 Z" stroke-linecap="round" />
</g>
		<g transform="matrix(1 0 0 1 293.87 684.26)"  >
<path style="stroke: none; stroke-width: 1; stroke-dasharray: none; stroke-linecap: butt; stroke-dashoffset: 0; stroke-linejoin: miter; stroke-miterlimit: 4; fill: rgb(255,255,255); fill-rule: nonzero; opacity: 1;" vector-effect="non-scaling-stroke"  transform=" translate(-4171.07, -1518.63)" d="M 4241.12 1545.06 C 4237.89 1559.46 4231.72 1570.9099999999999 4222.03 1580.61 C 4209.11 1593.53 4191.78 1598.52 4171.219999999999 1598.52 C 4144.78 1598.52 4128.039999999999 1588.52 4118.639999999999 1578.84 C 4098.639999999999 1558.58 4098.369999999999 1528.62 4098.369999999999 1518.9199999999998 C 4098.369999999999 1507.7599999999998 4098.959999999999 1478.9799999999998 4118.639999999999 1459.3 C 4126.86 1450.78 4143.9 1438.73 4173.2699999999995 1438.73 C 4193.2699999999995 1438.73 4212.929999999999 1445.2 4225.849999999999 1459.88 C 4239.36 1475.45 4243.179999999999 1496.0100000000002 4243.7699999999995 1516.5700000000002 C 4243.77 1526.56 4243.18 1536.25 4241.12 1545.06 Z M 4203.23 1477.8 C 4197.65 1468.69 4188.23 1461.06 4171.799999999999 1461.06 C 4166.219999999999 1461.06 4149.799999999999 1461.6499999999999 4139.489999999999 1478.06 C 4131.559999999999 1490.06 4130.6799999999985 1507.1399999999999 4130.6799999999985 1519.48 C 4130.6799999999985 1531.23 4130.969999999998 1560.9 4154.1799999999985 1572.65 C 4159.591026314086 1575.2235139664408 4165.518528199158 1576.5266750848555 4171.509999999998 1576.46 C 4182.379999999998 1576.46 4196.509999999998 1572.94 4204.989999999998 1556.78 C 4211.749999999998 1543.57 4211.989999999998 1523.8899999999999 4211.749999999998 1517.72 C 4211.75 1510.4 4210.58 1490.75 4203.23 1477.8 Z" stroke-linecap="round" />
</g>
		<g transform="matrix(1 0 0 1 453.22 646.66)"  >
<path style="stroke: none; stroke-width: 1; stroke-dasharray: none; stroke-linecap: butt; stroke-dashoffset: 0; stroke-linejoin: miter; stroke-miterlimit: 4; fill: rgb(255,255,255); fill-rule: nonzero; opacity: 1;" vector-effect="non-scaling-stroke"  transform=" translate(-4330.41, -1481.03)" d="M 4341.58 1595.29 C 4328.0599999999995 1595.29 4325.42 1595.29 4309.85 1596.17 L 4308.39 1594.1200000000001 C 4309.85 1563.2800000000002 4309.85 1531.5500000000002 4309.85 1500.42 C 4309.85 1484.8500000000001 4309.85 1479.5600000000002 4309.56 1466.64 C 4302.22 1466.93 4294.870000000001 1466.93 4289 1466.93 L 4287.24 1465.17 C 4287.82 1456.94 4288.12 1454.01 4288.41 1444.02 L 4290.17 1442.26 C 4298.99 1442.55 4304.86 1442.85 4308.97 1442.85 L 4308.68 1423.4599999999998 C 4308.68 1408.7699999999998 4308.68 1405.2499999999998 4309.56 1399.9599999999998 C 4316.320000000001 1365.8899999999999 4352.740000000001 1365.8899999999999 4360.96 1365.8899999999999 C 4365.37 1365.8899999999999 4368.31 1366.1799999999998 4372.13 1366.4799999999998 L 4373.59 1368.4799999999998 C 4372.42 1376.7099999999998 4372.13 1380.4799999999998 4371.54 1389.6299999999999 L 4369.48 1391.1 C 4366.896103216701 1390.3780473490458 4364.232151745936 1389.9816459952624 4361.549999999999 1389.9199999999998 C 4355.379999999999 1389.9199999999998 4348.629999999999 1391.1 4343.929999999999 1398.7399999999998 C 4339.23 1406.0799999999997 4339.23 1414.2999999999997 4339.5199999999995 1433.9799999999998 L 4339.5199999999995 1442.7999999999997 C 4340.11 1442.7999999999997 4365.66 1442.2099999999998 4368.599999999999 1442.2099999999998 L 4370.07 1443.9699999999998 C 4369.48 1453.37 4369.19 1455.7199999999998 4368.889999999999 1464.8299999999997 L 4367.129999999999 1466.5899999999997 C 4354.499999999999 1466.2899999999997 4351.859999999999 1466.2899999999997 4340.129999999999 1466.2899999999997 C 4340.129999999999 1505.3599999999997 4340.419999999999 1544.7199999999998 4342.48 1583.7899999999997 C 4342.48 1586.7199999999998 4342.7699999999995 1589.9599999999998 4343.0599999999995 1593.1899999999998 Z" stroke-linecap="round" />
</g>
		<g transform="matrix(1 0 0 1 738.42 657.22)"  >
<path style="stroke: none; stroke-width: 1; stroke-dasharray: none; stroke-linecap: butt; stroke-dashoffset: 0; stroke-linejoin: miter; stroke-miterlimit: 4; fill: rgb(255,255,255); fill-rule: nonzero; opacity: 1;" vector-effect="non-scaling-stroke"  transform=" translate(-4615.62, -1491.58)" d="M 4682.89 1389.39 C 4664.38 1411.1200000000001 4630.89 1451.0700000000002 4607.400000000001 1480.74 Q 4648.820000000001 1537.58 4693.750000000001 1592.06 L 4691.990000000001 1595.29 C 4674.660000000001 1595.29 4672.900000000001 1595.29 4654.1 1596.17 L 4651.46 1594.41 C 4635.3 1570.6200000000001 4579.79 1497.19 4572.15 1487.49 C 4572.15 1502.18 4572.44 1557.4 4574.5 1593.24 L 4572.74 1595.24 C 4555.99 1595.24 4555.41 1595.24 4540.13 1596.1200000000001 L 4538.66 1594.0700000000002 C 4539.84 1561.7600000000002 4539.84 1555.3000000000002 4539.84 1474.2300000000002 C 4539.84 1430.4600000000003 4539.25 1413.1300000000003 4537.49 1389.9200000000003 L 4539.25 1387.9200000000003 C 4555.11 1387.6300000000003 4557.46 1387.6300000000003 4572.15 1387.0400000000002 L 4573.62 1389.0400000000002 C 4572.15 1434.2800000000002 4572.15 1443.0900000000001 4572.15 1482.7400000000002 C 4574.5 1480.1000000000001 4576.849999999999 1477.1600000000003 4579.2 1474.2300000000002 C 4580.67 1472.4600000000003 4632.07 1408.7200000000003 4645.29 1389.6300000000003 L 4647.64 1387.8700000000003 C 4664.09 1387.8700000000003 4665.56 1387.5800000000004 4681.13 1386.9900000000002 Z" stroke-linecap="round" />
</g>
		<g transform="matrix(1 0 0 1 920.73 684.41)"  >
<path style="stroke: none; stroke-width: 1; stroke-dasharray: none; stroke-linecap: butt; stroke-dashoffset: 0; stroke-linejoin: miter; stroke-miterlimit: 4; fill: rgb(255,255,255); fill-rule: nonzero; opacity: 1;" vector-effect="non-scaling-stroke"  transform=" translate(-4797.93, -1518.78)" d="M 4859.71 1559.46 C 4858.24 1571.21 4857.95 1574.14 4857.36 1585.6000000000001 L 4855.599999999999 1587.66 C 4850.599999999999 1590.3000000000002 4834.749999999999 1598.8200000000002 4808.599999999999 1598.8200000000002 C 4760.429999999999 1598.8200000000002 4730.179999999999 1571.2100000000003 4730.179999999999 1520.1000000000001 C 4730.179999999999 1465.46 4763.07 1438.73 4801.549999999999 1438.73 C 4824.759999999999 1438.73 4840.909999999999 1448.43 4849.73 1459 C 4866.469999999999 1479 4865.879999999999 1508.06 4865.589999999999 1521 L 4863.529999999999 1522.76 C 4817.709999999999 1522.47 4809.779999999999 1522.47 4761.609999999999 1522.76 C 4761.899999999999 1533.04 4762.779999999999 1547.44 4772.769999999999 1559.48 C 4784.769999999999 1573.8700000000001 4801.549999999998 1575.34 4810.659999999999 1575.34 C 4819.365300735768 1575.3315496957712 4828.005552419245 1573.8402185832808 4836.209999999999 1570.9299999999998 C 4843.937480501692 1567.8455192209701 4851.088155650041 1563.4773526528065 4857.359999999999 1558.0099999999998 Z M 4832.39 1482.75 C 4826.51 1466.6 4813.59 1459.84 4800.39 1459.84 C 4783.9400000000005 1459.84 4764.55 1471 4761.62 1500.3799999999999 C 4797.16 1500.6699999999998 4808.32 1500.3799999999999 4835.34 1500.08 C 4835 1496 4834.75 1489.55 4832.39 1482.75 Z" stroke-linecap="round" />
</g>
		<g transform="matrix(1 0 0 1 1086.33 683.23)"  >
<path style="stroke: none; stroke-width: 1; stroke-dasharray: none; stroke-linecap: butt; stroke-dashoffset: 0; stroke-linejoin: miter; stroke-miterlimit: 4; fill: rgb(255,255,255); fill-rule: nonzero; opacity: 1;" vector-effect="non-scaling-stroke"  transform=" translate(-4963.53, -1517.6)" d="M 4994.83 1473.1 C 4991.12891370234 1471.4442214486867 4987.133658722682 1470.5465641596404 4983.08 1470.4599999999998 C 4978.675486986957 1470.459290373921 4974.373773666813 1471.7909390678394 4970.74 1474.2799999999997 C 4958.74 1482.7899999999997 4958.74 1495.7199999999998 4958.74 1526.2799999999997 C 4958.74 1559.4699999999998 4959.62 1576.7999999999997 4960.74 1593.2799999999997 L 4959.2699999999995 1595.2799999999997 C 4945.469999999999 1595.2799999999997 4942.2699999999995 1595.5799999999997 4928.139999999999 1596.1599999999999 L 4926.669999999999 1594.3999999999999 C 4926.959999999999 1572.08 4927.259999999999 1551.81 4927.259999999999 1524.4899999999998 C 4927.259999999999 1477.4899999999998 4926.379999999999 1465.4899999999998 4924.61 1448.4199999999998 L 4926.38 1446.36 C 4937.54 1444.36 4944.59 1442.84 4956.92 1440.49 L 4958.6900000000005 1442.25 L 4957.22 1467.25 C 4960.740000000001 1457.85 4968.09 1439.05 4993.05 1439.05 C 4995.820613718441 1438.9670064601287 4998.589571478661 1439.2630797078803 5001.28 1439.93 L 5002.45 1441.69 C 4999.5199999999995 1455.79 4998.929999999999 1458.69 4996.87 1471.69 Z" stroke-linecap="round" />
</g>
		<g transform="matrix(1 0 0 1 1228.8 684.4)"  >
<path style="stroke: none; stroke-width: 1; stroke-dasharray: none; stroke-linecap: butt; stroke-dashoffset: 0; stroke-linejoin: miter; stroke-miterlimit: 4; fill: rgb(255,255,255); fill-rule: nonzero; opacity: 1;" vector-effect="non-scaling-stroke"  transform=" translate(-5106, -1518.77)" d="M 5165.78 1534.75 C 5165.78 1571.18 5166.07 1574.41 5167.54 1593.5 L 5166.07 1594.97 C 5152.259999999999 1595.26 5149.91 1595.56 5136.4 1596.14 L 5135.23 1594.38 L 5135.5199999999995 1583.8100000000002 C 5129.94 1588.2100000000003 5116.719999999999 1598.8100000000002 5094.4 1598.8100000000002 C 5065.03 1598.8100000000002 5044.46 1578.8100000000002 5044.46 1549.7500000000002 C 5044.46 1510.3900000000003 5077.36 1497.7500000000002 5130.2300000000005 1491.6000000000001 L 5135.2300000000005 1491.0100000000002 C 5135.2300000000005 1483.0800000000002 5135.2300000000005 1477.5000000000002 5132.580000000001 1472.8000000000002 C 5129.650000000001 1467.5100000000002 5122.890000000001 1461.9300000000003 5108.200000000001 1461.9300000000003 C 5089.110000000001 1461.9300000000003 5075.89 1467.8000000000002 5063.56 1473.0900000000004 L 5061.21 1471.6200000000003 C 5061.79 1458.1100000000004 5061.79 1456.3500000000004 5062.09 1450.1800000000003 L 5063.85 1448.4200000000003 C 5080.3 1442.5400000000002 5097.34 1438.7200000000003 5114.67 1438.7200000000003 C 5136.4 1438.7200000000003 5157.55 1446.0700000000002 5163.72 1468.9800000000002 C 5165.780000000001 1477.2000000000003 5165.780000000001 1493.3600000000004 5165.780000000001 1505.6900000000003 Z M 5132.88 1513.31 C 5103.21 1517.72 5075.6 1521.83 5075.6 1547.97 C 5075.6 1549.44 5075.6 1574.7 5103.5 1574.7 C 5115.442826158388 1574.7282676749699 5126.924737049523 1570.092446152674 5135.5 1561.78 L 5135.5 1512.78 Z" stroke-linecap="round" />
</g>
		<g transform="matrix(1 0 0 1 1374.48 644.17)"  >
<path style="stroke: none; stroke-width: 1; stroke-dasharray: none; stroke-linecap: butt; stroke-dashoffset: 0; stroke-linejoin: miter; stroke-miterlimit: 4; fill: rgb(255,255,255); fill-rule: nonzero; opacity: 1;" vector-effect="non-scaling-stroke"  transform=" translate(-5251.68, -1478.53)" d="M 5267.7 1595 C 5253.599999999999 1595.29 5250.7 1595.59 5236.86 1596.17 L 5235.389999999999 1594.1200000000001 C 5235.98 1573.2600000000002 5236.86 1546.8300000000002 5236.86 1490.43 C 5236.86 1449.9 5236.86 1406.43 5233.92 1368.8300000000002 L 5235.39 1367.0600000000002 C 5249.780000000001 1364.7100000000003 5252.72 1364.13 5267.39 1360.89 L 5269.150000000001 1362.95 C 5267.09 1401.43 5267.09 1440.2 5267.09 1478.68 C 5267.09 1543.01 5267.97 1565.3300000000002 5269.4400000000005 1593.24 Z" stroke-linecap="round" />
</g>
		<g transform="matrix(1 0 0 1 1514.03 684.4)"  >
<path style="stroke: none; stroke-width: 1; stroke-dasharray: none; stroke-linecap: butt; stroke-dashoffset: 0; stroke-linejoin: miter; stroke-miterlimit: 4; fill: rgb(255,255,255); fill-rule: nonzero; opacity: 1;" vector-effect="non-scaling-stroke"  transform=" translate(-5391.23, -1518.77)" d="M 5451 1534.75 C 5451 1571.18 5451.29 1574.41 5452.76 1593.5 L 5451.29 1594.97 C 5437.49 1595.26 5435.14 1595.56 5421.62 1596.14 L 5420.45 1594.38 L 5420.74 1583.8100000000002 C 5415.16 1588.2100000000003 5401.94 1598.8100000000002 5379.62 1598.8100000000002 C 5350.25 1598.8100000000002 5329.69 1578.8100000000002 5329.69 1549.7500000000002 C 5329.69 1510.3900000000003 5362.58 1497.7500000000002 5415.46 1491.6000000000001 L 5420.46 1491.0100000000002 C 5420.46 1483.0800000000002 5420.46 1477.5000000000002 5417.82 1472.8000000000002 C 5414.88 1467.5100000000002 5408.12 1461.9300000000003 5393.44 1461.9300000000003 C 5374.339999999999 1461.9300000000003 5361.129999999999 1467.8000000000002 5348.79 1473.0900000000004 L 5346.44 1471.6200000000003 C 5347.03 1458.1100000000004 5347.03 1456.3500000000004 5347.32 1450.1800000000003 L 5349.08 1448.4200000000003 C 5365.53 1442.5400000000002 5382.57 1438.7200000000003 5399.9 1438.7200000000003 C 5421.629999999999 1438.7200000000003 5442.78 1446.0700000000002 5448.9 1468.9800000000002 C 5450.96 1477.2000000000003 5450.96 1493.3600000000004 5450.96 1505.6900000000003 Z M 5418.1 1513.31 C 5388.43 1517.72 5360.820000000001 1521.83 5360.820000000001 1547.97 C 5360.820000000001 1549.44 5360.820000000001 1574.7 5388.7300000000005 1574.7 C 5400.6728261583885 1574.7282676749699 5412.154737049524 1570.092446152674 5420.7300000000005 1561.78 L 5420.7300000000005 1512.78 Z" stroke-linecap="round" />
</g>
		<g transform="matrix(1 0 0 1 1778.57 657.19)"  >
<path style="stroke: none; stroke-width: 1; stroke-dasharray: none; stroke-linecap: butt; stroke-dashoffset: 0; stroke-linejoin: miter; stroke-miterlimit: 4; fill: rgb(255,255,255); fill-rule: nonzero; opacity: 1;" vector-effect="non-scaling-stroke"  transform=" translate(-5655.77, -1491.56)" d="M 5673.39 1389.09 C 5672.51 1408.77 5671.92 1431.98 5671.92 1482.5 C 5671.92 1538.9 5672.51 1562.98 5674.27 1593.24 L 5672.51 1595.24 C 5659.58 1595.54 5655.51 1595.54 5639.900000000001 1596.1200000000001 L 5638.14 1594.0700000000002 C 5638.7300000000005 1576.15 5639.31 1560.5800000000002 5639.31 1522.69 C 5639.31 1478.3400000000001 5639.31 1434.28 5637.26 1390.22 L 5638.7300000000005 1387.8700000000001 C 5651.650000000001 1387.8700000000001 5656.35 1387.8700000000001 5671.330000000001 1386.99 Z" stroke-linecap="round" />
</g>
		<g transform="matrix(1 0 0 1 1938.92 657.19)"  >
<path style="stroke: none; stroke-width: 1; stroke-dasharray: none; stroke-linecap: butt; stroke-dashoffset: 0; stroke-linejoin: miter; stroke-miterlimit: 4; fill: rgb(255,255,255); fill-rule: nonzero; opacity: 1;" vector-effect="non-scaling-stroke"  transform=" translate(-5816.11, -1491.55)" d="M 5879.83 1571.21 C 5878.95 1581.21 5878.95 1583.21 5878.36 1593.21 L 5876.299999999999 1595.21 C 5819.029999999999 1595.21 5809.919999999999 1595.51 5754.11 1596.0900000000001 L 5752.639999999999 1594.0400000000002 C 5753.5199999999995 1570.8300000000002 5754.4 1554.9700000000003 5754.4 1501.2200000000003 C 5754.4 1451.8700000000003 5754.4 1423.6700000000003 5752.4 1389.8900000000003 L 5754.16 1387.8900000000003 C 5812.03 1387.6000000000004 5823.48 1387.6000000000004 5877.53 1387.0100000000002 L 5879.29 1389.0100000000002 C 5878.41 1397.8300000000002 5877.82 1401.3500000000001 5877.23 1411.9200000000003 L 5875.469999999999 1413.9800000000002 C 5837.579999999999 1412.8100000000002 5824.949999999999 1412.8100000000002 5787.65 1412.5100000000002 C 5786.7699999999995 1439.5100000000002 5786.7699999999995 1448.0500000000002 5786.7699999999995 1475.0800000000002 C 5822.889999999999 1475.3700000000001 5834.0599999999995 1475.0800000000002 5869.889999999999 1474.4900000000002 L 5871.36 1476.5500000000002 C 5870.455178950923 1484.053954492548 5869.964435406122 1491.6020575863934 5869.889999999999 1499.16 L 5868.129999999999 1501.22 C 5834.0599999999995 1500.34 5826.709999999999 1500.34 5786.7699999999995 1500.34 C 5786.179999999999 1534.4099999999999 5786.469999999999 1542.6299999999999 5786.7699999999995 1570.54 C 5831.12 1570.54 5840.219999999999 1570.54 5878.12 1569.07 Z" stroke-linecap="round" />
</g>
		<g transform="matrix(1 0 0 1 2127.45 657.19)"  >
<path style="stroke: none; stroke-width: 1; stroke-dasharray: none; stroke-linecap: butt; stroke-dashoffset: 0; stroke-linejoin: miter; stroke-miterlimit: 4; fill: rgb(255,255,255); fill-rule: nonzero; opacity: 1;" vector-effect="non-scaling-stroke"  transform=" translate(-6004.65, -1491.55)" d="M 6068.39 1571.21 C 6067.51 1581.21 6067.51 1583.21 6066.92 1593.21 L 6064.86 1595.21 C 6007.589999999999 1595.21 5998.48 1595.51 5942.67 1596.0900000000001 L 5941.2 1594.0400000000002 C 5942.09 1570.8300000000002 5942.97 1554.9700000000003 5942.97 1501.2200000000003 C 5942.97 1451.8700000000003 5942.97 1423.6700000000003 5940.91 1389.8900000000003 L 5942.67 1387.8900000000003 C 6000.54 1387.6000000000004 6011.99 1387.6000000000004 6066.04 1387.0100000000002 L 6067.8 1389.0100000000002 C 6066.92 1397.8300000000002 6066.33 1401.3500000000001 6065.75 1411.9200000000003 L 6064 1414 C 6026.11 1412.83 6013.48 1412.83 5976.18 1412.53 C 5975.3 1439.53 5975.3 1448.07 5975.3 1475.1 C 6011.43 1475.3899999999999 6022.59 1475.1 6058.42 1474.51 L 6059.89 1476.57 C 6058.990140921764 1484.0744137736513 6058.499415074291 1491.6222446657205 6058.42 1499.1799999999998 L 6056.66 1501.2399999999998 C 6022.59 1500.3599999999997 6015.24 1500.3599999999997 5975.3 1500.3599999999997 C 5974.71 1534.4299999999996 5975 1542.6499999999996 5975.3 1570.5599999999997 C 6019.650000000001 1570.5599999999997 6028.76 1570.5599999999997 6066.650000000001 1569.0899999999997 Z" stroke-linecap="round" />
</g>
		<g transform="matrix(1 0 0 1 2316.09 657.19)"  >
<path style="stroke: none; stroke-width: 1; stroke-dasharray: none; stroke-linecap: butt; stroke-dashoffset: 0; stroke-linejoin: miter; stroke-miterlimit: 4; fill: rgb(255,255,255); fill-rule: nonzero; opacity: 1;" vector-effect="non-scaling-stroke"  transform=" translate(-6193.28, -1491.55)" d="M 6257 1571.21 C 6256.12 1581.21 6256.12 1583.21 6255.53 1593.21 L 6253.53 1595.21 C 6196.25 1595.21 6187.15 1595.51 6131.34 1596.0900000000001 L 6129.87 1594.0400000000002 C 6130.75 1570.8300000000002 6131.63 1554.9700000000003 6131.63 1501.2200000000003 C 6131.63 1451.8700000000003 6131.63 1423.6700000000003 6129.57 1389.8900000000003 L 6131.34 1387.8900000000003 C 6189.2 1387.6000000000004 6200.66 1387.6000000000004 6254.7 1387.0100000000002 L 6256.47 1389.0100000000002 C 6255.58 1397.8300000000002 6255 1401.3500000000001 6254.41 1411.9200000000003 L 6252.65 1413.9800000000002 C 6214.759999999999 1412.8100000000002 6202.129999999999 1412.8100000000002 6164.82 1412.5100000000002 C 6163.94 1439.5100000000002 6163.94 1448.0500000000002 6163.94 1475.0800000000002 C 6200.07 1475.3700000000001 6211.23 1475.0800000000002 6247.07 1474.4900000000002 L 6248.54 1476.5500000000002 C 6247.630198577162 1484.0534918497065 6247.139437054666 1491.6018714576264 6247.07 1499.16 L 6245.299999999999 1501.22 C 6211.23 1500.34 6203.889999999999 1500.34 6163.94 1500.34 C 6163.349999999999 1534.4099999999999 6163.65 1542.6299999999999 6163.94 1570.54 C 6208.29 1570.54 6217.4 1570.54 6255.29 1569.07 Z" stroke-linecap="round" />
</g>
		<g transform="matrix(1 0 0 1 2614.61 657.27)"  >
<path style="stroke: none; stroke-width: 1; stroke-dasharray: none; stroke-linecap: butt; stroke-dashoffset: 0; stroke-linejoin: miter; stroke-miterlimit: 4; fill: rgb(255,255,255); fill-rule: nonzero; opacity: 1;" vector-effect="non-scaling-stroke"  transform=" translate(-6491.8, -1491.64)" d="M 6509.28 1477.8 C 6530.73 1487.2 6559.219999999999 1499.54 6559.219999999999 1537.1299999999999 C 6559.219999999999 1570.03 6534.839999999999 1599.6999999999998 6483.73 1599.6999999999998 C 6452.589999999999 1599.6999999999998 6432.62 1590.2999999999997 6425.57 1586.7699999999998 L 6424.389999999999 1584.7699999999998 C 6425.57 1574.4899999999998 6425.86 1568.9099999999999 6426.74 1557.7699999999998 L 6429.679999999999 1556.5899999999997 C 6437.0199999999995 1561.5899999999997 6454.0599999999995 1573.9199999999996 6481.379999999999 1573.9199999999996 C 6511.629999999999 1573.9199999999996 6524.259999999999 1558.3499999999997 6524.259999999999 1540.7299999999996 C 6524.259999999999 1520.1699999999996 6507.259999999999 1512.2399999999996 6488.129999999999 1504.8899999999996 L 6473.449999999999 1498.4299999999996 C 6452.589999999999 1488.7399999999996 6424.689999999999 1476.1099999999997 6424.689999999999 1440.2699999999995 C 6424.689999999999 1429.3999999999996 6427.619999999999 1418.2699999999995 6433.789999999999 1409.4299999999996 C 6447.3099999999995 1390.0399999999995 6471.689999999999 1383.5799999999997 6495.479999999999 1383.5799999999997 C 6518.6799999999985 1383.5799999999997 6532.779999999999 1387.9899999999998 6548.3499999999985 1392.9799999999998 L 6549.819999999999 1395.3299999999997 C 6548.6399999999985 1406.4899999999998 6548.3499999999985 1410.6099999999997 6547.469999999998 1421.1799999999996 L 6545.119999999998 1422.3499999999997 C 6532.489999999998 1415.8899999999996 6518.6799999999985 1408.8399999999997 6496.649999999998 1408.8399999999997 C 6472.269999999998 1408.8399999999997 6456.999999999998 1420.2999999999997 6456.999999999998 1437.6299999999997 C 6456.999999999998 1450.8499999999997 6465.809999999999 1457.0099999999998 6471.999999999998 1460.8299999999997 C 6475.819999999998 1463.1799999999996 6476.999999999998 1463.7699999999998 6494.619999999998 1471.4099999999996 Z" stroke-linecap="round" />
</g>
		<g transform="matrix(1 0 0 1 2768.41 662.38)"  >
<path style="stroke: none; stroke-width: 1; stroke-dasharray: none; stroke-linecap: butt; stroke-dashoffset: 0; stroke-linejoin: miter; stroke-miterlimit: 4; fill: rgb(255,255,255); fill-rule: nonzero; opacity: 1;" vector-effect="non-scaling-stroke"  transform=" translate(-6645.61, -1496.75)" d="M 6688.16 1572.09 C 6687.28 1581.78 6687.28 1583.84 6686.99 1592.36 L 6685.5199999999995 1594.12 C 6678.3455350866225 1596.0209717436883 6670.940530202197 1596.9095723298194 6663.5199999999995 1596.76 C 6656.469999999999 1596.76 6637.959999999999 1596.76 6628.86 1581.49 C 6623.57 1572.97 6623.57 1565.92 6623.57 1531.26 L 6624.16 1466.6399999999999 C 6613.88 1466.6399999999999 6613.59 1466.9299999999998 6603.01 1467.2299999999998 L 6601.84 1465.4599999999998 C 6602.42 1456.0599999999997 6602.42 1453.7099999999998 6602.42 1444.3199999999997 L 6604.1900000000005 1442.5499999999997 C 6610.650000000001 1442.5499999999997 6614.47 1442.8499999999997 6624.1900000000005 1442.5499999999997 C 6623.900000000001 1436.3799999999997 6623.900000000001 1429.9199999999996 6623.900000000001 1423.7499999999998 L 6623 1407 L 6624.47 1404.94 C 6637.6900000000005 1401.71 6640.92 1400.8300000000002 6654.47 1396.72 L 6656.530000000001 1398.19 C 6655.650000000001 1417.5700000000002 6655.35 1421.39 6655.35 1442.8400000000001 C 6667.6900000000005 1442.5400000000002 6671.22 1442.5400000000002 6687.96 1441.95 L 6689.38 1443.74 C 6688.79 1451.3700000000001 6688.5 1454.61 6688.5 1464.59 L 6687.03 1466.35 C 6672.34 1466.06 6670.58 1465.77 6655.03 1465.77 L 6654.44 1520.4 C 6654.74 1523.93 6654.74 1540.67 6654.74 1544.7800000000002 C 6654.74 1566.2200000000003 6657.38 1572.9800000000002 6672.07 1572.9800000000002 C 6676.890267673581 1572.95247643725 6681.666292378804 1572.0582420243568 6686.17 1570.3400000000001 Z" stroke-linecap="round" />
</g>
		<g transform="matrix(1 0 0 1 2929.57 685.71)"  >
<path style="stroke: none; stroke-width: 1; stroke-dasharray: none; stroke-linecap: butt; stroke-dashoffset: 0; stroke-linejoin: miter; stroke-miterlimit: 4; fill: rgb(255,255,255); fill-rule: nonzero; opacity: 1;" vector-effect="non-scaling-stroke"  transform=" translate(-6806.77, -1520.07)" d="M 6872 1443.43 C 6871.41 1465.76 6871.11 1486.6100000000001 6871.11 1510.43 C 6871.11 1546.5600000000002 6872 1568.3 6872.58 1580.93 C 6872.58 1585.04 6872.88 1589.15 6873.17 1593.27 L 6872 1595 C 6857.9 1595.29 6855.55 1595.59 6842 1596.17 L 6840.24 1594.41 L 6840.54 1582.0800000000002 C 6834.07 1586.7700000000002 6818.54 1598.8200000000002 6794.42 1598.8200000000002 C 6782.96 1598.8200000000002 6770.33 1596.17 6760.93 1588.8200000000002 C 6742.14 1573.5500000000002 6742.14 1548.5800000000002 6741.84 1525.67 L 6741.84 1507.46 C 6741.25 1465.46 6741.25 1460.75 6740.37 1444.89 L 6741.84 1442.8400000000001 C 6755.650000000001 1442.5400000000002 6758.29 1442.5400000000002 6772.1 1441.3700000000001 L 6773.860000000001 1443.3700000000001 L 6772.68 1507.7 C 6772.68 1515.63 6772.39 1521.51 6772.68 1535.6100000000001 C 6772.9800000000005 1547.94 6773.570000000001 1574.38 6803.2300000000005 1574.38 C 6820.56 1574.38 6832.900000000001 1564.69 6839.950000000001 1559.1000000000001 C 6840.240000000001 1543.2400000000002 6840.240000000001 1529.7300000000002 6840.240000000001 1512.69 C 6840.240000000001 1471.8700000000001 6839.950000000001 1463.69 6838.1900000000005 1444.55 L 6839.950000000001 1442.49 C 6853.460000000001 1442.2 6856.6900000000005 1442.2 6870.200000000001 1441.32 Z" stroke-linecap="round" />
</g>
		<g transform="matrix(1 0 0 1 3127.46 645.15)"  >
<path style="stroke: none; stroke-width: 1; stroke-dasharray: none; stroke-linecap: butt; stroke-dashoffset: 0; stroke-linejoin: miter; stroke-miterlimit: 4; fill: rgb(255,255,255); fill-rule: nonzero; opacity: 1;" vector-effect="non-scaling-stroke"  transform=" translate(-7004.66, -1479.51)" d="M 7041.22 1367.06 C 7056.22 1364.4199999999998 7059.14 1363.83 7072.360000000001 1360.8899999999999 L 7074.410000000001 1362.6599999999999 C 7072.360000000001 1403.4899999999998 7072.06 1476.33 7072.06 1505.6599999999999 C 7072.06 1551.1899999999998 7073.240000000001 1572.9299999999998 7074.410000000001 1593.1999999999998 L 7072.9400000000005 1595.1999999999998 C 7060.02 1595.1999999999998 7056.500000000001 1595.4999999999998 7042.9400000000005 1596.08 L 7040.9400000000005 1594.32 L 7041.530000000001 1583.45 C 7034.530000000001 1588.74 7022.43 1598.14 7000.990000000001 1598.14 C 6961.920000000001 1598.14 6934.900000000001 1567.3000000000002 6934.900000000001 1522.65 C 6934.900000000001 1490.65 6948.410000000001 1470.3700000000001 6960.750000000001 1459.5 C 6982.1900000000005 1440.11 7010.100000000001 1439.23 7025.370000000001 1439.23 C 7031.540000000001 1439.23 7034.4800000000005 1439.23 7042.370000000001 1439.82 C 7042.660000000001 1403.3999999999999 7041.1900000000005 1385.82 7039.720000000001 1368.74 Z M 7041.52 1463.7 C 7036.52 1463.41 7033 1462.82 7026.830000000001 1462.82 C 7017.720000000001 1462.82 6998.340000000001 1463.4099999999999 6984.240000000001 1476.6299999999999 C 6977.780000000001 1482.79 6967.240000000001 1496.6299999999999 6967.240000000001 1522.7399999999998 C 6967.240000000001 1539.4799999999998 6971.9400000000005 1551.5299999999997 6978.110000000001 1558.87 C 6983.400000000001 1565.04 6993.110000000001 1572.09 7008.360000000001 1572.09 C 7026.280000000001 1572.09 7037.150000000001 1562.6899999999998 7041.26 1559.1599999999999 C 7041.81 1520.6799999999998 7041.81 1511.87 7041.52 1463.7499999999998 Z" stroke-linecap="round" />
</g>
		<g transform="matrix(1 0 0 1 3326.39 684.41)"  >
<path style="stroke: none; stroke-width: 1; stroke-dasharray: none; stroke-linecap: butt; stroke-dashoffset: 0; stroke-linejoin: miter; stroke-miterlimit: 4; fill: rgb(255,255,255); fill-rule: nonzero; opacity: 1;" vector-effect="non-scaling-stroke"  transform=" translate(-7203.59, -1518.78)" d="M 7265.39 1559.46 C 7263.92 1571.21 7263.62 1574.14 7263.04 1585.6000000000001 L 7261.2699999999995 1587.66 C 7256.2699999999995 1590.3000000000002 7240.419999999999 1598.8200000000002 7214.2699999999995 1598.8200000000002 C 7166.089999999999 1598.8200000000002 7135.839999999999 1571.2100000000003 7135.839999999999 1520.1000000000001 C 7135.839999999999 1465.46 7168.739999999999 1438.73 7207.219999999999 1438.73 C 7230.419999999999 1438.73 7246.579999999999 1448.43 7255.389999999999 1459 C 7272.129999999999 1479 7271.539999999999 1508.06 7271.249999999999 1521 L 7269.249999999999 1522.76 C 7223.419999999999 1522.47 7215.489999999999 1522.47 7167.319999999999 1522.76 C 7167.609999999999 1533.04 7168.489999999999 1547.44 7178.479999999999 1559.48 C 7190.479999999999 1573.8700000000001 7207.269999999999 1575.34 7216.369999999999 1575.34 C 7225.078474285772 1575.3305433279368 7233.721843513128 1573.8392577922311 7241.929999999999 1570.9299999999998 C 7249.657480501693 1567.8455192209701 7256.808155650041 1563.4773526528065 7263.079999999999 1558.0099999999998 Z M 7238 1482.75 C 7232.12 1466.6 7219.2 1459.84 7206 1459.84 C 7189.55 1459.84 7170.17 1471 7167.23 1500.3799999999999 C 7202.7699999999995 1500.6699999999998 7213.929999999999 1500.3799999999999 7240.959999999999 1500.08 C 7240.66 1496 7240.39 1489.55 7238 1482.75 Z" stroke-linecap="round" />
</g>
		<g transform="matrix(1 0 0 1 3519.54 683.53)"  >
<path style="stroke: none; stroke-width: 1; stroke-dasharray: none; stroke-linecap: butt; stroke-dashoffset: 0; stroke-linejoin: miter; stroke-miterlimit: 4; fill: rgb(255,255,255); fill-rule: nonzero; opacity: 1;" vector-effect="non-scaling-stroke"  transform=" translate(-7396.74, -1517.89)" d="M 7462.13 1595 C 7448.04 1595.29 7446.27 1595.29 7432.76 1596.17 L 7430.7 1594.1200000000001 C 7430.7 1590.89 7431 1587.66 7431 1584.42 C 7431.29 1570.03 7431.29 1555.64 7431.29 1541.25 C 7431.29 1496.01 7431 1493.07 7429.53 1486.91 C 7423.95 1464.5800000000002 7407.21 1464.5800000000002 7403.09 1464.5800000000002 C 7385.47 1464.5800000000002 7371.96 1474.8600000000001 7364.03 1481.0300000000002 C 7363.73 1532.14 7364.32 1558.8700000000001 7366.38 1593.2400000000002 L 7364.61 1595.0000000000002 C 7350.219999999999 1595.2900000000002 7347.87 1595.2900000000002 7333.7699999999995 1596.1700000000003 L 7332.299999999999 1594.1200000000003 C 7332.599999999999 1577.6700000000003 7333.19 1561.8100000000004 7333.19 1540.1200000000003 C 7333.19 1493.1200000000003 7331.129999999999 1468.1200000000003 7329.66 1448.4800000000002 L 7331.42 1446.4200000000003 C 7346.11 1443.7800000000002 7348.75 1443.1900000000003 7362.56 1440.5500000000004 L 7364.56 1442.5500000000004 L 7364.27 1457.8300000000004 C 7371.910000000001 1452.5400000000004 7390.120000000001 1439.6100000000004 7415.97 1439.6100000000004 C 7423.31 1439.6100000000004 7432.42 1440.7900000000004 7440.35 1445.2000000000003 C 7447.962534592868 1449.5197909977912 7453.93783495154 1456.2297018123238 7457.35 1464.2900000000002 C 7461.17 1473.1000000000001 7461.47 1481.91 7461.76 1500.1200000000001 L 7461.76 1534.49 C 7462.64 1568.86 7462.9400000000005 1582.08 7463.820000000001 1593.24 Z" stroke-linecap="round" />
</g>
		<g transform="matrix(1 0 0 1 3680.16 662.39)"  >
<path style="stroke: none; stroke-width: 1; stroke-dasharray: none; stroke-linecap: butt; stroke-dashoffset: 0; stroke-linejoin: miter; stroke-miterlimit: 4; fill: rgb(255,255,255); fill-rule: nonzero; opacity: 1;" vector-effect="non-scaling-stroke"  transform=" translate(-7557.36, -1496.75)" d="M 7599.89 1572.09 C 7599.01 1581.78 7599.01 1583.84 7598.72 1592.36 L 7597.25 1594.12 C 7590.075535086623 1596.0209717436883 7582.670530202197 1596.9095723298194 7575.25 1596.76 C 7568.2 1596.76 7549.69 1596.76 7540.59 1581.49 C 7535.3 1572.97 7535.3 1565.92 7535.3 1531.26 L 7535.89 1466.6399999999999 C 7525.610000000001 1466.6399999999999 7525.31 1466.9299999999998 7514.740000000001 1467.2299999999998 L 7513.56 1465.4599999999998 C 7514.150000000001 1456.0599999999997 7514.150000000001 1453.7099999999998 7514.150000000001 1444.3199999999997 L 7515.910000000001 1442.5499999999997 C 7522.380000000001 1442.5499999999997 7526.1900000000005 1442.8499999999997 7535.910000000001 1442.5499999999997 C 7535.610000000001 1436.3799999999997 7535.610000000001 1429.9199999999996 7535.610000000001 1423.7499999999998 Q 7535.170000000001 1415.3799999999999 7534.7300000000005 1407.0099999999998 L 7536.200000000001 1404.9499999999998 C 7549.420000000001 1401.7199999999998 7552.650000000001 1400.84 7566.200000000001 1396.7299999999998 L 7568.260000000001 1398.1999999999998 C 7567.380000000001 1417.58 7567.080000000001 1421.3999999999999 7567.080000000001 1442.85 C 7579.420000000001 1442.55 7582.950000000001 1442.55 7599.6900000000005 1441.9599999999998 L 7601.160000000001 1443.7299999999998 C 7600.570000000001 1451.36 7600.280000000001 1454.5999999999997 7600.280000000001 1464.5799999999997 L 7598.81 1466.3399999999997 C 7584.120000000001 1466.0499999999997 7582.360000000001 1465.7599999999998 7566.81 1465.7599999999998 L 7566.22 1520.3899999999999 C 7566.52 1523.9199999999998 7566.52 1540.6599999999999 7566.52 1544.77 C 7566.52 1566.21 7569.160000000001 1572.97 7583.85 1572.97 C 7588.670267673581 1572.9424764372498 7593.446292378805 1572.0482420243566 7597.950000000001 1570.33 Z" stroke-linecap="round" />
</g>
		<g transform="matrix(1 0 0 1 3821.82 684.42)"  >
<path style="stroke: none; stroke-width: 1; stroke-dasharray: none; stroke-linecap: butt; stroke-dashoffset: 0; stroke-linejoin: miter; stroke-miterlimit: 4; fill: rgb(255,255,255); fill-rule: nonzero; opacity: 1;" vector-effect="non-scaling-stroke"  transform=" translate(-7699.02, -1518.79)" d="M 7715.91 1506 C 7727.66 1509.82 7754.389999999999 1518.92 7754.389999999999 1550.06 C 7754.528899496004 1563.5283776123233 7748.461954400271 1576.311375607346 7737.94 1584.72 C 7722.37 1597.94 7701.5199999999995 1598.82 7690.94 1598.82 C 7677.181176413589 1598.9528115483624 7663.523454879179 1596.4581730474204 7650.7 1591.47 L 7646.3 1589.71 L 7644.83 1587.07 C 7646 1575.61 7646 1574.1399999999999 7646.59 1562.3899999999999 L 7649.53 1561.5099999999998 C 7654.8099999999995 1565.6299999999997 7667.74 1575.6099999999997 7690.36 1575.6099999999997 C 7713.5599999999995 1575.6099999999997 7722.08 1562.6899999999996 7722.08 1553.6099999999997 C 7722.08 1540.0999999999997 7709.45 1535.6999999999996 7691.53 1529.8199999999997 L 7682.13 1526.5899999999997 C 7670.13 1522.7699999999998 7643.650000000001 1514.2499999999998 7643.650000000001 1483.9999999999998 C 7643.650000000001 1453.7499999999998 7670.09 1438.7499999999998 7702.990000000001 1438.7499999999998 C 7717.490025181097 1438.727047320969 7731.856325964911 1441.5221928399003 7745.290000000001 1446.9799999999998 L 7746.750000000001 1448.9799999999998 C 7745.580000000001 1459.8499999999997 7745.290000000001 1460.9799999999998 7744.400000000001 1472.1899999999998 L 7741.76 1473.36 C 7734.42 1468.6599999999999 7722.96 1461.62 7703.87 1461.62 C 7699.613642577649 1461.5394539738957 7695.3657270225185 1462.030503594679 7691.24 1463.08 C 7682.429999999999 1465.4299999999998 7675.08 1471.6 7675.08 1480.71 C 7675.08 1493.3400000000001 7687.13 1497.16 7705.34 1502.71 Z" stroke-linecap="round" />
</g>
		<g transform="matrix(1 0 0 1 -3668.24 -246.61)"  >
<path style="stroke: none; stroke-width: 1; stroke-dasharray: none; stroke-linecap: butt; stroke-dashoffset: 0; stroke-linejoin: miter; stroke-miterlimit: 4; fill: rgb(255,255,255); fill-rule: nonzero; opacity: 1;" vector-effect="non-scaling-stroke"  transform=" translate(-208.95, -587.76)" d="M 49.3 1175.52 L 49.3 0 L 368.61 0 L 368.61 1175.52 Z" stroke-linecap="round" />
</g>
		<g transform="matrix(1 0 0 1 -2852.11 -246.61)"  >
<path style="stroke: none; stroke-width: 1; stroke-dasharray: none; stroke-linecap: butt; stroke-dashoffset: 0; stroke-linejoin: miter; stroke-miterlimit: 4; fill: rgb(255,255,255); fill-rule: nonzero; opacity: 1;" vector-effect="non-scaling-stroke"  transform=" translate(-1025.09, -587.76)" d="M 662.66 1175.52 L 662.66 0 L 1371.88 0 L 1371.88 226.94 L 982 226.94 L 982 460.87 L 1323.34 460.87 L 1323.34 687.75 L 982 687.75 L 982 948.58 L 1387.52 948.58 L 1387.52 1175.49 Z" stroke-linecap="round" />
</g>
		<g transform="matrix(1 0 0 1 -1844.32 -246.61)"  >
<path style="stroke: none; stroke-width: 1; stroke-dasharray: none; stroke-linecap: butt; stroke-dashoffset: 0; stroke-linejoin: miter; stroke-miterlimit: 4; fill: rgb(255,255,255); fill-rule: nonzero; opacity: 1;" vector-effect="non-scaling-stroke"  transform=" translate(-2032.88, -587.76)" d="M 1670.46 1175.52 L 1670.46 0 L 2379.6800000000003 0 L 2379.6800000000003 226.94 L 1989.77 226.94 L 1989.77 460.87 L 2331.11 460.87 L 2331.11 687.75 L 1989.77 687.75 L 1989.77 948.58 L 2395.29 948.58 L 2395.29 1175.49 Z" stroke-linecap="round" />
</g>
		<g transform="matrix(1 0 0 1 -836.53 -246.61)"  >
<path style="stroke: none; stroke-width: 1; stroke-dasharray: none; stroke-linecap: butt; stroke-dashoffset: 0; stroke-linejoin: miter; stroke-miterlimit: 4; fill: rgb(255,255,255); fill-rule: nonzero; opacity: 1;" vector-effect="non-scaling-stroke"  transform=" translate(-3040.67, -587.76)" d="M 2678.25 1175.52 L 2678.25 0 L 3387.48 0 L 3387.48 226.94 L 2997.57 226.94 L 2997.57 460.87 L 3338.9 460.87 L 3338.9 687.75 L 2997.57 687.75 L 2997.57 948.58 L 3403.09 948.58 L 3403.09 1175.49 Z" stroke-linecap="round" />
</g>
		<g transform="matrix(1 0 0 1 518.19 -246.61)"  >
<path style="stroke: none; stroke-width: 1; stroke-dasharray: none; stroke-linecap: butt; stroke-dashoffset: 0; stroke-linejoin: miter; stroke-miterlimit: 4; fill: rgb(255,255,255); fill-rule: nonzero; opacity: 1;" vector-effect="non-scaling-stroke"  transform=" translate(-4395.39, -587.76)" d="M 4062.46 1175.52 L 4062.46 0 L 4381.77 0 L 4381.77 948.61 L 4728.320000000001 948.61 L 4728.320000000001 1175.52 Z" stroke-linecap="round" />
</g>
		<g transform="matrix(1 0 0 1 1282.26 -246.61)"  >
<path style="stroke: none; stroke-width: 1; stroke-dasharray: none; stroke-linecap: butt; stroke-dashoffset: 0; stroke-linejoin: miter; stroke-miterlimit: 4; fill: rgb(255,255,255); fill-rule: nonzero; opacity: 1;" vector-effect="non-scaling-stroke"  transform=" translate(-5159.45, -587.76)" d="M 4999.8 1175.52 L 4999.8 0 L 5319.110000000001 0 L 5319.110000000001 1175.52 Z" stroke-linecap="round" />
</g>
		<g transform="matrix(1 0 0 1 2215.87 -246.61)"  >
<path style="stroke: none; stroke-width: 1; stroke-dasharray: none; stroke-linecap: butt; stroke-dashoffset: 0; stroke-linejoin: miter; stroke-miterlimit: 4; fill: rgb(255,255,255); fill-rule: nonzero; opacity: 1;" vector-effect="non-scaling-stroke"  transform=" translate(-6093.07, -587.76)" d="M 5634 1175.52 L 5634 0 L 5982.56 0 L 6239.290000000001 693.51 L 6243.36 0 L 6552.139999999999 0 L 6552.139999999999 1175.52 L 6204.69 1175.52 L 5946.27 449.34 L 5942.76 1175.52 Z" stroke-linecap="round" />
</g>
		<g transform="matrix(1 0 0 1 3407.09 -246.59)"  >
<path style="stroke: none; stroke-width: 1; stroke-dasharray: none; stroke-linecap: butt; stroke-dashoffset: 0; stroke-linejoin: miter; stroke-miterlimit: 4; fill: rgb(255,255,255); fill-rule: nonzero; opacity: 1;" vector-effect="non-scaling-stroke"  transform=" translate(-7284.29, -587.77)" d="M 6851.64 1175.52 L 6851.64 0 L 7160.39 0 L 7160.39 481.68 L 7377.12 0 L 7715.2 0 L 7449.8 487 L 7716.9400000000005 1175.52 L 7377.16 1175.52 L 7235 755.14 L 7160.45 852.14 L 7160.45 1175.55 Z" stroke-linecap="round" />
</g>
</g>
</g>
</svg>
